<?xml version="1.0" encoding="UTF-8" standalone="no"?>
<!-- Created with Inkscape (http://www.inkscape.org/) -->

<svg
   xmlns:dc="http://purl.org/dc/elements/1.1/"
   xmlns:cc="http://creativecommons.org/ns#"
   xmlns:rdf="http://www.w3.org/1999/02/22-rdf-syntax-ns#"
   xmlns:svg="http://www.w3.org/2000/svg"
   xmlns="http://www.w3.org/2000/svg"
   xmlns:sodipodi="http://sodipodi.sourceforge.net/DTD/sodipodi-0.dtd"
   xmlns:inkscape="http://www.inkscape.org/namespaces/inkscape"
   width="100"
   height="100"
   viewBox="0 0 100 99.999999"
   id="svg4353"
   version="1.1"
   inkscape:version="0.91 r"
   sodipodi:docname="elite.svg">
  <defs
     id="defs4355" />
  <sodipodi:namedview
     id="base"
     pagecolor="#ffffff"
     bordercolor="#666666"
     borderopacity="1.0"
     inkscape:pageopacity="0.0"
     inkscape:pageshadow="2"
     inkscape:zoom="1.979899"
     inkscape:cx="78.341543"
     inkscape:cy="1.0455611"
     inkscape:document-units="px"
     inkscape:current-layer="layer1"
     showgrid="false"
     fit-margin-top="0"
     fit-margin-left="0"
     fit-margin-right="0"
     fit-margin-bottom="0"
     units="px"
     inkscape:window-width="799"
     inkscape:window-height="848"
     inkscape:window-x="800"
     inkscape:window-y="0"
     inkscape:window-maximized="0" />
  <metadata
     id="metadata4358">
    <rdf:RDF>
      <cc:Work
         rdf:about="">
        <dc:format>image/svg+xml</dc:format>
        <dc:type
           rdf:resource="http://purl.org/dc/dcmitype/StillImage" />
        <dc:title></dc:title>
      </cc:Work>
    </rdf:RDF>
  </metadata>
  <g
     inkscape:label="Layer 1"
     inkscape:groupmode="layer"
     id="layer1"
     transform="translate(-209.33109,-330.97874)">
    <g
       id="g4944"
       transform="translate(2.1882372,-11.383469)">
      <path
         sodipodi:nodetypes="ccccccccccsscsccscccccsccccscscscsscscccscscccscssssssssscccssssssssssccccccssscccssccccssscssscccccsssccssssscsssccc"
         inkscape:connector-curvature="0"
         id="path4589-5-5"
         d="m 225.978,423.0598 0,-7.91894 31.52248,0 31.52248,0 0,7.91894 0,7.91894 -31.52248,0 -31.52248,0 z m -16.6468,0.72857 c 0.0234,-0.0208 2.54854,-1.84085 5.61138,-4.04459 3.06284,-2.20374 5.5688,-4.04597 5.5688,-4.09384 0,-0.0639 -8.71928,-6.4125 -10.98246,-7.99641 -0.2416,-0.16908 0.10769,-0.17623 7.39448,-0.15127 l 7.64807,0.0262 0.69715,1.14819 c 0.38344,0.6315 0.9023,1.43617 1.15304,1.78815 l 0.45589,0.63995 -1.06286,1.47222 -1.06285,1.47221 0,4.88848 0,4.88848 -7.73161,0 c -4.25238,0 -7.71245,-0.017 -7.68903,-0.0378 z m 80.91792,-4.90489 0,-4.94268 -1.23939,-1.72456 c -0.68166,-0.94851 -1.306,-1.82544 -1.38743,-1.94874 -0.13837,-0.20953 -0.0962,-0.30803 0.64489,-1.50715 l 0.79293,-1.28297 7.97418,0 c 7.58927,0 7.96199,0.009 7.72155,0.17681 -2.2623,1.58328 -10.98153,7.93184 -10.98153,7.99575 0,0.0479 2.50596,1.8901 5.5688,4.09384 3.06284,2.20374 5.58796,4.0238 5.61138,4.04459 0.0234,0.0208 -3.27572,0.0378 -7.3314,0.0378 l -7.37398,0 0,-4.94267 z m -63.47772,-5.83465 c 0.37851,-0.53243 0.71751,-0.96925 0.75333,-0.97071 0.0548,-0.002 0.54794,0.57811 1.44945,1.70581 l 0.18623,0.23296 -1.53861,0 -1.53861,0 z m 3.64583,0.71946 c -0.10932,-0.13672 -0.54754,-0.65401 -0.97382,-1.14952 -3.13508,-3.64427 -5.64754,-8.30515 -7.03547,-13.05154 -2.00931,-6.87141 -1.88515,-14.36576 0.35077,-21.17249 2.67767,-8.15152 8.27465,-15.13836 15.68523,-19.58021 7.61832,-4.56637 16.67807,-6.12052 25.44278,-4.36456 9.81201,1.96577 18.35957,8.02122 23.65928,16.76123 3.26219,5.37984 5.05115,11.87303 5.05115,18.33362 0,7.51454 -2.28127,14.60892 -6.71076,20.8694 -0.53442,0.75533 -1.62069,2.09598 -2.68768,3.31708 l -0.25545,0.29235 -3.60071,-0.0289 -3.60071,-0.0289 1.07322,-0.90977 c 7.49878,-6.35668 11.56617,-16.1281 10.77319,-25.88133 -0.73481,-9.03767 -5.22543,-17.13828 -12.46175,-22.4797 -10.36291,-7.64928 -24.50272,-8.04068 -35.25204,-0.97581 -1.87125,1.22986 -3.26216,2.36575 -4.909,4.00894 -2.45748,2.45203 -4.22994,4.89873 -5.76807,7.96224 -3.22125,6.41576 -4.10648,13.73801 -2.50878,20.75158 1.48952,6.53868 5.14419,12.50083 10.29927,16.80201 0.46364,0.38684 0.84298,0.719 0.84298,0.73814 0,0.0191 -1.62335,0.0348 -3.60743,0.0348 l -3.60744,0 -0.19876,-0.2486 z m 54.23014,-0.0413 c 0.91801,-1.12146 1.81408,-2.25677 1.96719,-2.49242 l 0.18121,-0.27891 1.06251,1.47511 c 0.58437,0.8113 1.0625,1.50008 1.0625,1.53061 0,0.0305 -1.01491,0.0555 -2.25536,0.0555 l -2.25536,0 z m -29.90575,-2.32873 c -1.34661,-0.14384 -2.89789,-0.38998 -3.83174,-0.60798 -8.92266,-2.08299 -16.06474,-8.58703 -18.95368,-17.26045 -0.74516,-2.23718 -1.16086,-4.47974 -1.3306,-7.17813 l -0.0659,-1.04735 2.5116,0 2.51159,0 0,0.79458 c 0,2.29929 0.73209,5.44634 1.8356,7.89071 2.55211,5.65316 7.54534,9.99456 13.44029,11.68576 2.11942,0.60803 3.60127,0.8143 5.87534,0.81784 3.43391,0.005 6.13607,-0.59555 9.19412,-2.04449 5.71404,-2.70738 9.99886,-7.94586 11.48026,-14.03541 0.32074,-1.31845 0.57903,-3.03922 0.57903,-3.85763 0,-0.337 0.0287,-0.75642 0.0639,-0.93205 l 0.0639,-0.31931 2.4518,0 2.45179,0 -0.0712,1.20062 c -0.22085,3.72222 -1.09596,7.10805 -2.66077,10.29461 -1.36104,2.77161 -3.05774,5.10438 -5.27664,7.25477 -3.97607,3.85333 -8.84768,6.27022 -14.34216,7.11541 -1.28305,0.19736 -4.90905,0.33717 -5.92643,0.2285 z m -8.61618,-26.81058 c -2.14991,-0.45102 -3.67028,-2.61826 -3.3023,-4.70732 0.40925,-2.32334 2.52873,-3.86273 4.77884,-3.47089 3.56833,0.62139 4.71611,5.10867 1.88012,7.35039 -0.90011,0.7115 -2.28412,1.05282 -3.35666,0.82782 z m 19.70733,-0.008 c -0.71355,-0.13987 -1.54163,-0.59601 -2.10529,-1.15967 -1.61168,-1.61167 -1.61168,-4.22449 0,-5.83617 2.38597,-2.38597 6.40054,-1.11024 7.01591,2.22946 0.40423,2.19385 -1.11882,4.34651 -3.37843,4.77504 -0.62183,0.11792 -0.8943,0.11638 -1.53219,-0.009 z"
         style="fill:#2a7767;fill-opacity:1" />
      <g
         id="text4378-1-0-5"
         style="font-style:normal;font-weight:normal;font-size:13.12479401px;line-height:125%;font-family:sans-serif;letter-spacing:0px;word-spacing:0px;fill:#ffffff;fill-opacity:1;stroke:none;stroke-width:1px;stroke-linecap:butt;stroke-linejoin:miter;stroke-opacity:1"
         transform="matrix(1.1293898,0,0,0.88543388,66.875028,24.98057)">
        <path
           id="path4438-5-2-4"
           style="font-weight:bold;fill:#ffffff;fill-opacity:1"
           d="m 149.48414,444.6987 6.65853,0 0,1.8649 -4.19122,0 0,1.78159 3.94128,0 0,1.8649 -3.94128,0 0,2.19173 4.33221,0 0,1.8649 -6.79952,0 0,-9.56802 z"
           inkscape:connector-curvature="0" />
        <path
           id="path4440-0-4-6"
           style="font-weight:bold;fill:#ffffff;fill-opacity:1"
           d="m 158.45617,444.6987 2.46731,0 0,7.70312 4.3322,0 0,1.8649 -6.79951,0 0,-9.56802 z"
           inkscape:connector-curvature="0" />
        <path
           id="path4442-2-4-3"
           style="font-weight:bold;fill:#ffffff;fill-opacity:1"
           d="m 166.81297,444.6987 2.46731,0 0,9.56802 -2.46731,0 0,-9.56802 z"
           inkscape:connector-curvature="0" />
        <path
           id="path4444-5-0-0"
           style="font-weight:bold;fill:#ffffff;fill-opacity:1"
           d="m 170.56841,444.6987 8.81822,0 0,1.8649 -3.17226,0 0,7.70312 -2.4673,0 0,-7.70312 -3.17866,0 0,-1.8649 z"
           inkscape:connector-curvature="0" />
        <path
           id="path4446-5-8-8"
           style="font-weight:bold;fill:#ffffff;fill-opacity:1"
           d="m 180.65553,444.6987 6.65852,0 0,1.8649 -4.19122,0 0,1.78159 3.94129,0 0,1.8649 -3.94129,0 0,2.19173 4.33221,0 0,1.8649 -6.79951,0 0,-9.56802 z"
           inkscape:connector-curvature="0" />
      </g>
    </g>
  </g>
</svg>
